<svg width="1732" height="342" viewBox="0 0 1732 342" fill="none" xmlns="http://www.w3.org/2000/svg">
<rect width="1732" height="342" rx="60" fill="#0E1603"/>
<path d="M488.24 144.528L484.4 145.808L469.168 123.152H433.84V163.728H453.936L463.28 147.344H467.248V182.416L462.128 184.976L454.32 169.488H433.712V207.376L453.552 212.88L450.992 218H405.68V214.032L417.712 204.56V126.992L404.4 122.512L406.96 117.392H481.2L488.24 115.088V144.528ZM559.353 218H535.033V206.864L520.569 218.256C518.862 218.939 516.729 219.28 514.169 219.28C506.83 219.28 501.497 217.445 498.169 213.776C494.926 210.107 493.305 205.712 493.305 200.592C493.305 197.52 494.414 194.491 496.633 191.504C498.852 188.517 502.009 185.701 506.105 183.056H535.033V174.864C535.033 169.317 533.54 165.392 530.553 163.088C527.652 160.784 523.641 159.632 518.521 159.632C513.23 159.632 506.745 162.832 499.065 169.232L495.225 164.368L513.657 149.776C517.07 149.093 521.166 148.752 525.945 148.752C533.71 148.752 539.726 150.672 543.993 154.512C548.26 158.267 550.393 163.771 550.393 171.024V208.4L561.913 212.88L559.353 218ZM518.265 208.4C523.47 208.4 529.06 206.011 535.033 201.232V188.304H512.377C511.268 189.669 510.457 191.035 509.945 192.4C509.518 193.765 509.305 195.259 509.305 196.88C509.305 200.037 510.116 202.768 511.737 205.072C513.358 207.291 515.534 208.4 518.265 208.4ZM613.381 204.176C613.381 201.787 612.058 199.611 609.413 197.648C606.768 195.6 602.714 193.168 597.253 190.352C592.816 188.048 589.232 186.043 586.501 184.336C583.77 182.629 581.424 180.667 579.461 178.448C577.584 176.144 576.645 173.669 576.645 171.024C576.645 167.952 577.925 164.667 580.485 161.168C583.045 157.669 586.202 154.725 589.957 152.336C593.712 149.947 597.21 148.752 600.453 148.752C604.378 148.752 608.901 149.264 614.021 150.288C619.226 151.227 622.981 152.293 625.285 153.488V173.2H620.421C617.69 167.909 614.533 163.813 610.949 160.912C607.365 157.925 603.696 156.432 599.941 156.432C597.296 156.432 595.162 157.157 593.541 158.608C591.92 159.973 591.109 161.723 591.109 163.856C591.109 166.501 592.474 168.891 595.205 171.024C598.021 173.072 602.245 175.504 607.877 178.32C612.229 180.539 615.728 182.459 618.373 184.08C621.018 185.701 623.237 187.621 625.029 189.84C626.906 191.973 627.845 194.363 627.845 197.008C627.845 200.165 626.48 203.493 623.749 206.992C621.104 210.405 617.818 213.307 613.893 215.696C610.053 218.085 606.512 219.28 603.269 219.28C599.088 219.28 594.096 218.811 588.293 217.872C582.576 216.848 578.48 215.739 576.005 214.544V194.832H580.869C583.856 200.123 587.397 204.261 591.493 207.248C595.589 210.149 599.728 211.6 603.909 211.6C606.725 211.6 608.986 210.875 610.693 209.424C612.485 207.973 613.381 206.224 613.381 204.176ZM680.145 218.256C678.182 218.939 675.793 219.28 672.977 219.28C665.894 219.28 660.689 217.445 657.361 213.776C654.118 210.021 652.497 204.261 652.497 196.496V159.12H638.673V153.872L662.993 125.584H667.857V153.872H690.897V159.12H667.857V198.032C667.857 204.944 671.185 208.4 677.841 208.4C679.633 208.4 681.34 208.016 682.961 207.248C684.668 206.48 686.758 205.115 689.233 203.152L693.073 208.016L680.145 218.256ZM803.8 218H764.888V214.032L776.92 204.688L767.064 181.008H724.056L713.56 205.2L736.088 212.88L733.528 218H694.616V214.032L706.648 204.56L742.872 121.488L756.184 114.96L793.56 205.072L806.36 212.88L803.8 218ZM746.072 130.32L726.616 175.248H764.76L746.072 130.32ZM852.967 219.408C848.359 219.408 844.092 218 840.167 215.184V240.016L858.087 245.52L855.527 250.64H813.415V246.672L824.807 237.712V168.976L813.415 162.32V158.352L835.303 147.6L839.527 164.24L857.831 149.776C860.562 149.093 863.676 148.752 867.175 148.752C871.783 148.752 875.922 150.245 879.591 153.232C883.346 156.133 886.247 160.101 888.295 165.136C890.428 170.171 891.495 175.717 891.495 181.776C891.495 188.347 889.49 194.533 885.479 200.336C881.468 206.053 876.434 210.661 870.375 214.16C864.402 217.573 858.599 219.28 852.967 219.28V219.408ZM860.647 161.04C857.404 161.04 854.247 161.68 851.175 162.96C848.103 164.24 844.434 166.757 840.167 170.512V192.144C840.167 196.837 841.916 200.763 845.415 203.92C848.914 207.077 853.906 208.656 860.391 208.656C870.034 208.656 874.855 201.787 874.855 188.048C874.855 180.453 873.618 174.053 871.143 168.848C868.668 163.643 865.17 161.04 860.647 161.04ZM943.252 218H907.54V214.032L918.932 205.072V167.696L907.54 159.76V155.792L929.428 147.6H934.292V208.4L945.812 212.88L943.252 218ZM926.1 109.2C928.66 109.2 930.751 110.139 932.372 112.016C934.079 113.893 934.932 116.24 934.932 119.056C934.932 121.019 934.335 122.896 933.14 124.688C931.945 126.395 930.452 127.76 928.66 128.784C926.868 129.808 925.119 130.32 923.412 130.32C920.852 130.32 918.719 129.381 917.012 127.504C915.391 125.627 914.58 123.28 914.58 120.464C914.58 118.501 915.177 116.667 916.372 114.96C917.567 113.168 919.06 111.76 920.852 110.736C922.644 109.712 924.393 109.2 926.1 109.2ZM1058.19 163.856C1064.76 165.733 1069.93 168.891 1073.68 173.328C1077.43 177.765 1079.31 182.885 1079.31 188.688C1079.31 194.064 1077.14 199.141 1072.78 203.92C1068.52 208.613 1063.14 212.368 1056.66 215.184C1050.26 218 1044.15 219.408 1038.35 219.408C1034.09 219.408 1029.9 219.195 1025.81 218.768C1018.98 218.341 1013.69 218.128 1009.94 218.128H993.68V214.16L1005.71 204.688V126.864L992.4 122.512L994.96 117.392H1009.81C1017.57 117.392 1025.21 117.136 1032.72 116.624C1038.52 116.283 1042.79 116.112 1045.52 116.112C1051.24 116.112 1056.27 117.221 1060.62 119.44C1064.98 121.659 1068.3 124.688 1070.61 128.528C1073 132.283 1074.19 136.507 1074.19 141.2C1074.19 145.467 1072.7 149.563 1069.71 153.488C1066.81 157.328 1062.97 160.699 1058.19 163.6V163.856ZM1056.91 147.6C1056.91 140.859 1055.12 135.355 1051.54 131.088C1047.95 126.821 1042.62 124.688 1035.54 124.688C1030.42 124.688 1025.81 126.139 1021.71 129.04V162.96H1040.02C1045.31 162.96 1049.45 161.637 1052.43 158.992C1055.42 156.261 1056.91 152.421 1056.91 147.472V147.6ZM1041.94 210.064C1048.08 210.064 1052.94 208.528 1056.53 205.456C1060.2 202.384 1062.03 198.245 1062.03 193.04C1062.03 186.384 1060.07 181.008 1056.14 176.912C1052.3 172.816 1046.54 170.64 1038.86 170.384C1038.27 170.469 1037.46 170.512 1036.43 170.512H1021.71V206.736C1027.43 209.04 1034.17 210.192 1041.94 210.192V210.064ZM1160.73 218H1136.41V206.864L1121.94 218.256C1120.24 218.939 1118.1 219.28 1115.54 219.28C1108.21 219.28 1102.87 217.445 1099.54 213.776C1096.3 210.107 1094.68 205.712 1094.68 200.592C1094.68 197.52 1095.79 194.491 1098.01 191.504C1100.23 188.517 1103.38 185.701 1107.48 183.056H1136.41V174.864C1136.41 169.317 1134.91 165.392 1131.93 163.088C1129.03 160.784 1125.02 159.632 1119.9 159.632C1114.61 159.632 1108.12 162.832 1100.44 169.232L1096.6 164.368L1115.03 149.776C1118.45 149.093 1122.54 148.752 1127.32 148.752C1135.09 148.752 1141.1 150.672 1145.37 154.512C1149.63 158.267 1151.77 163.771 1151.77 171.024V208.4L1163.29 212.88L1160.73 218ZM1119.64 208.4C1124.85 208.4 1130.43 206.011 1136.41 201.232V188.304H1113.75C1112.64 189.669 1111.83 191.035 1111.32 192.4C1110.89 193.765 1110.68 195.259 1110.68 196.88C1110.68 200.037 1111.49 202.768 1113.11 205.072C1114.73 207.291 1116.91 208.4 1119.64 208.4ZM1211.43 148.752C1214.93 148.752 1218.98 149.264 1223.59 150.288C1228.28 151.227 1231.65 152.293 1233.7 153.488V173.2H1228.84C1225.51 168.933 1221.67 165.605 1217.32 163.216C1213.05 160.741 1208.61 159.504 1204 159.504C1200.08 159.504 1197.09 161.253 1195.04 164.752C1193.08 168.251 1192.1 173.371 1192.1 180.112C1192.1 188.133 1193.85 194.875 1197.35 200.336C1200.85 205.712 1205.84 208.4 1212.32 208.4C1217.19 208.4 1224.1 204.901 1233.06 197.904L1236.9 202.768L1217.19 218.256C1213.77 218.939 1209.68 219.28 1204.9 219.28C1199.27 219.28 1194.19 217.829 1189.67 214.928C1185.23 211.941 1181.73 207.931 1179.17 202.896C1176.7 197.861 1175.46 192.315 1175.46 186.256C1175.46 179.685 1177.29 173.499 1180.96 167.696C1184.72 161.893 1189.41 157.285 1195.04 153.872C1200.68 150.459 1206.14 148.752 1211.43 148.752ZM1287.75 212.88L1285.19 218H1249.48V214.032L1260.87 205.072V126.352L1249.48 118.416V114.448L1271.37 106.256H1276.23V208.4L1287.75 212.88ZM1328.71 218H1307.08L1283.02 184.208L1306.95 164.112L1294.66 155.152L1297.22 150.032H1327.82V154L1298.12 178.96L1319.75 208.4L1331.27 212.88L1328.71 218ZM1383.94 218.256C1380.52 218.939 1376.43 219.28 1371.65 219.28C1366.02 219.28 1360.94 217.829 1356.42 214.928C1351.98 211.941 1348.48 207.931 1345.92 202.896C1343.45 197.861 1342.21 192.315 1342.21 186.256C1342.21 179.685 1344.22 173.541 1348.23 167.824C1352.24 162.021 1357.23 157.413 1363.2 154C1369.26 150.501 1375.11 148.752 1380.74 148.752C1388.84 148.752 1395.12 151.952 1399.55 158.352C1404.08 164.752 1406.34 173.2 1406.34 183.696H1358.98C1359.49 190.949 1361.45 196.88 1364.87 201.488C1368.36 206.096 1373.1 208.4 1379.07 208.4C1384.62 208.4 1392.51 204.091 1402.75 195.472L1406.59 200.336L1383.94 218.256ZM1373.31 159.504C1364.1 159.504 1359.28 165.819 1358.85 178.448H1388.8C1388.03 173.84 1387.22 170.341 1386.37 167.952C1385.6 165.477 1384.19 163.472 1382.15 161.936C1380.18 160.315 1377.24 159.504 1373.31 159.504ZM1501.77 218.128H1477.45V174.992C1477.45 170.299 1476.73 167.013 1475.28 165.136C1473.83 163.259 1471.22 162.32 1467.47 162.32C1464.65 162.32 1461.84 162.832 1459.02 163.856C1456.29 164.88 1453.05 166.843 1449.29 169.744V208.528L1460.81 213.008L1458.25 218.128H1422.54V214.16L1433.93 205.2V168.976L1422.54 162.32V158.352L1444.43 147.6L1448.65 164.24L1466.83 149.776C1468.62 149.093 1470.97 148.752 1473.87 148.752C1479.67 148.752 1484.28 150.544 1487.69 154.128C1491.11 157.627 1492.81 162.405 1492.81 168.464V208.4L1504.33 213.008L1501.77 218.128ZM1591.85 218H1567.53V208.784L1555.63 218.256C1552.9 218.939 1549.61 219.28 1545.77 219.28C1540.14 219.28 1535.06 217.829 1530.54 214.928C1526.1 211.941 1522.6 207.931 1520.04 202.896C1517.57 197.861 1516.33 192.315 1516.33 186.256C1516.33 179.685 1518.34 173.541 1522.35 167.824C1526.36 162.021 1531.35 157.413 1537.32 154C1543.38 150.501 1549.23 148.752 1554.86 148.752C1559.55 148.752 1563.82 150.075 1567.66 152.72V126.352L1556.27 118.416V114.448L1578.16 106.256H1583.02V208.4L1594.41 212.88L1591.85 218ZM1552.3 208.4C1554.86 208.4 1557.29 208.059 1559.6 207.376C1561.99 206.608 1564.63 205.2 1567.53 203.152V173.968C1567.02 169.701 1565.01 166.245 1561.52 163.6C1558.1 160.869 1553.41 159.504 1547.44 159.504C1537.79 159.504 1532.97 166.373 1532.97 180.112C1532.97 188.133 1534.64 194.875 1537.96 200.336C1541.29 205.712 1546.07 208.4 1552.3 208.4Z" fill="white"/>
<path fill-rule="evenodd" clip-rule="evenodd" d="M198.156 72.0525C159.482 77.739 128.877 103.471 116.867 140.397C116.045 142.924 115.103 145.83 114.773 146.855C113.164 151.85 119.231 151.355 121.779 146.284C148.087 93.926 229.087 101.109 243.29 157.06C246.01 167.775 257.277 166.529 157.699 166.529C78.8859 166.529 70.6545 166.614 70.3384 167.438C69.8872 168.613 69.8872 173.634 70.3384 174.81C70.6315 175.573 71.8884 175.719 78.241 175.727C98.2144 175.751 111.328 185.376 117.747 204.722C133.479 252.138 187.489 280.792 236.859 267.915C271.832 258.792 302.914 227.094 308.818 194.528C309.609 190.167 303.893 191.434 301.696 196.107C284.861 231.906 234.159 243.173 202.43 218.165C189.175 207.718 178.617 189.219 178.615 176.438C178.615 175.87 196.64 175.692 265.832 175.576C347.429 175.44 385.989 166.615 326.036 164.232C305.732 163.425 313.824 158.137 305.894 137.745C288.057 91.8785 244.392 65.2542 198.156 72.0525Z" fill="#E9F893"/>
</svg>
